<svg xmlns="http://www.w3.org/2000/svg" xmlns:xlink="http://www.w3.org/1999/xlink" width="81.92" height="81.92" version="1.1" xml:space="preserve" style="shape-rendering:geometricPrecision;text-rendering:geometricPrecision;image-rendering:optimizeQuality;fill-rule:evenodd;clip-rule:evenodd" viewBox="0 0 2167 2167"><defs><style type="text/css">.fil1{fill:#284feb}.fil0{fill:#4d6ef0}.fil2{fill:#fefefe;fill-rule:nonzero}</style></defs><g id="Layer_x0020_1"><metadata id="CorelCorpID_0Corel-Layer"/><g id="_916255616"><circle cx="1084" cy="1084" r="1084" class="fil0"/><g><path d="M2125 1386c-131,451 -548,781 -1041,781 -89,0 -176,-10 -259,-31l-477 -446c97,-81 205,-149 322,-201l0 0 0 -79 -331 -310 111 -93 297 -251 298 -250 34 -29 34 29 298 250 298 251 111 93 305 286zm-1652 246l21 -9c-7,3 -14,6 -21,9zm198 -72l22 -6c-7,2 -15,4 -22,6zm45 -13l12 -3 0 0 -12 3zm-45 -58l0 0 0 0 0 0zm2 -1l0 0 0 0 0 0zm2 -1l1 0 0 0 1 -1 0 0 -2 1zm111 42l9 -2 0 0 -9 2zm-111 -42l-2 1 2 -1z" class="fil1"/></g><path d="M1113 506l298 250 298 251 111 93 -145 0 -187 0 0 314c120,28 234,73 341,132 -233,-66 -489,-91 -754,-66 -265,26 -511,100 -727,210 99,-83 209,-152 329,-204 -2,1 -5,2 -7,3l0 -389 -186 0 -145 0 111 -93 297 -251 298 -250 34 -29 34 29zm277 889c-3,0 -5,-1 -8,-1l0 -170 0 -124 0 -106 148 0 -187 -157 -264 -222 -264 222 -186 157 147 0 0 106 0 124 0 224 0 0c92,-31 189,-52 290,-62 110,-11 219,-7 324,9zm-400 -377c0,-50 40,-90 89,-90 50,0 90,40 90,90 0,33 -18,62 -45,78l9 15 54 94 -108 0 -108 0 54 -94 9 -15c-26,-16 -44,-45 -44,-78z" class="fil2"/></g></g></svg>